<?xml version="1.0" encoding="utf-8"?>
<!-- Generator: Adobe Illustrator 19.1.0, SVG Export Plug-In . SVG Version: 6.00 Build 0)  -->
<svg version="1.1" id="Layer_1" xmlns="http://www.w3.org/2000/svg" xmlns:xlink="http://www.w3.org/1999/xlink" x="0px" y="0px"
	 viewBox="-139 51 512 512" style="enable-background:new -139 51 512 512;" xml:space="preserve">
<style type="text/css">
	.st0{fill:#FEDE9A;}
</style>
<g>
	<path class="st0" d="M149,203H85c-4.4,0-8,3.6-8,8s3.6,8,8,8h64c4.4,0,8-3.6,8-8S153.4,203,149,203z"/>
	<path class="st0" d="M149,251H85c-4.4,0-8,3.6-8,8s3.6,8,8,8h64c4.4,0,8-3.6,8-8S153.4,251,149,251z"/>
	<path class="st0" d="M234.6,317c16.9-33.7,34.4-68.5,34.4-106c0-83.8-68.2-152-152-152S-35,127.2-35,211
		c0,37.9,17.7,73.2,34.7,107.4l0,0.1C14.8,348.7,29,377.3,29,403c0,13.2,10.8,24,24,24h128c13.2,0,24-10.8,24-24
		C205,376,219.4,347.4,234.6,317z M189,403v8h-8h-48h-8v-8v-96c0-4.4-3.6-8-8-8s-8,3.6-8,8v96v8h-8H53h-8v-8c0-29.5-15-59.7-31-91.7
		C-2.2,278.7-19,245-19,211c0-36.3,14.1-70.5,39.8-96.2C46.5,89.1,80.7,75,117,75c36.3,0,70.5,14.1,96.2,39.8S253,174.7,253,211
		c0,33.8-16.6,66.9-32.7,98.8C204.9,340.5,189,372.3,189,403z"/>
	<path class="st0" d="M164,463H70c-4.4,0-8,3.6-8,8s3.6,8,8,8h94c4.4,0,8-3.6,8-8S168.4,463,164,463z"/>
	<path class="st0" d="M164,505H70c-4.4,0-8,3.6-8,8s3.6,8,8,8h94c4.4,0,8-3.6,8-8S168.4,505,164,505z"/>
</g>
</svg>
